<svg width="260" height="289" viewBox="0 0 260 289" fill="none" xmlns="http://www.w3.org/2000/svg">
<path fill-rule="evenodd" clip-rule="evenodd" d="M209.737 253.831C184.802 276.774 152.073 290.142 116.766 288.342C83.293 286.635 50.5839 270.495 27.7373 244.551C7.0228 221.028 6.0453 189.554 3.2121 159.392C0.315 128.549 -3.2954 97.562 11.4926 71.6066C30.2246 38.7284 54.5344 -1.5116 93.842 0.320749C132.929 2.14287 150.363 51.4503 179.507 79.4388C207.338 106.166 251.821 121.256 258.222 158.185C264.831 196.312 236.955 228.787 209.737 253.831Z" fill="url(#paint0_linear_201_48)"/>
<path d="M116.023 72.6297C118.788 69.8145 122.48 68.9599 124.271 70.7207C126.061 72.4815 125.271 76.1904 122.505 79.0062C121.415 80.1462 120.069 81.0085 118.578 81.5211L106.712 93.3011L101.306 87.6123L113.577 76.6032C114.063 75.1023 114.902 73.7397 116.023 72.6297Z" fill="#FFB6B6"/>
<path d="M78.076 62.9059L90.517 90.5193L110.382 79.7604L117.492 83.5357C117.492 83.5357 101.252 110.7 90.133 107.608C79.014 104.515 59.269 76.4765 62.8265 67.8228C66.384 59.1691 78.076 62.9059 78.076 62.9059Z" fill="#FAFBFC"/>
<path d="M135.744 78.4929C132.856 75.8043 131.902 72.1341 133.612 70.2955C135.322 68.4568 139.049 69.1461 141.938 71.8361C143.107 72.8947 144.005 74.218 144.558 75.6952L156.65 87.2414L151.114 92.8038L139.781 80.8307C138.268 80.3852 136.884 79.5835 135.744 78.4929Z" fill="#A0616A"/>
<path d="M196.657 80.2727L173.316 105.137C173.316 105.137 168.074 110.326 159.451 102.843C150.827 95.359 141.239 83.0819 141.239 83.0819L146.618 77.2247L156.146 85.7294C156.146 85.7294 161.802 88.0068 162.195 89.4803C162.589 90.9538 161.489 91.5633 163.257 91.0911C165.024 90.619 165.058 89.5656 165.169 91.1631C165.28 92.7606 164.2 94.6276 166.242 92.8192C168.284 91.0108 168.893 92.1109 168.893 92.1109L183.811 72.3389C183.811 72.3389 193.451 64.7118 196.222 71.5487C198.994 78.3856 196.657 80.2727 196.657 80.2727Z" fill="#00B2C9"/>
<path d="M72.622 246.938L81.693 246.937L86.008 211.929L72.62 211.93L72.622 246.938Z" fill="#FFB6B6"/>
<path d="M103.7 246.732C103.983 247.208 104.132 248.744 104.132 249.297C104.132 250.999 102.753 252.378 101.053 252.378H72.961C71.801 252.378 70.861 251.437 70.861 250.276V249.106C70.861 249.106 69.471 245.589 72.332 241.254C72.332 241.254 75.888 244.649 81.202 239.332L82.768 236.492L94.111 244.792L100.398 245.566C101.773 245.735 102.992 245.54 103.7 246.732Z" fill="#2F2E41"/>
<path d="M177.169 85.3858H199.649V52.1509H177.169V85.3858Z" fill="#2F2E41"/>
<path d="M194.603 75.252L193.816 65.733H183.348L181.027 75.8182L194.603 75.252Z" fill="#A0616A"/>
<path opacity="0.1" d="M194.603 75.252L193.816 65.733H183.348L181.027 75.8182L194.603 75.252Z" fill="black"/>
<path d="M79.486 64.6779L79.669 52.4365L72.124 47.7307L63.9203 57.7716L79.486 64.6779Z" fill="#FFB6B6"/>
<path opacity="0.1" d="M79.486 64.6779L79.974 52.7415L72.124 47.7307L74.791 62.5026L79.486 64.6779Z" fill="black"/>
<path d="M186.933 68.7617C193.253 68.7617 198.375 63.6361 198.375 57.3133C198.375 50.9906 193.253 45.865 186.933 45.865C180.614 45.865 175.491 50.9906 175.491 57.3133C175.491 63.6361 180.614 68.7617 186.933 68.7617Z" fill="#A0616A"/>
<path d="M184.047 45.2689C184.047 45.2689 184.047 40.569 188.409 41.5761C192.771 42.5832 194.113 44.2618 194.113 44.2618C194.113 44.2618 195.79 46.9474 198.475 47.2831C201.159 47.6188 203.507 55.3401 203.172 57.0186C202.836 58.6971 201.159 63.0613 203.507 65.0756C205.856 67.0898 209.211 70.1112 208.205 73.1325C207.198 76.1539 204.178 83.8751 204.178 83.8751C204.178 83.8751 212.601 85.1069 211.913 90.3659C211.913 90.3659 207.869 87.2322 202.501 87.2322C197.132 87.2322 197.804 77.4875 197.804 77.4875C197.804 77.4875 197.468 71.454 196.461 69.7755C195.455 68.0969 196.797 58.6971 191.764 53.6615C186.731 48.6259 184.047 45.2689 184.047 45.2689Z" fill="#2F2E41"/>
<path d="M185.389 44.2618C185.389 44.2618 179.014 45.6046 176.666 51.983C174.317 58.3615 175.503 59.5483 175.503 59.5483C175.503 59.5483 174.984 63.3891 172.134 64.7359C169.284 66.0827 171.633 71.7897 171.633 71.7897C171.633 71.7897 170.962 77.4967 161.903 79.511C152.844 81.5252 173.263 96.971 173.263 96.971C173.263 96.971 171.795 89.6813 181.19 89.3456C190.584 89.0099 179.35 71.7897 179.35 71.7897L178.343 60.7114C178.343 60.7114 180.356 47.9546 186.396 46.276C192.435 44.5975 185.389 44.2618 185.389 44.2618Z" fill="#2F2E41"/>
<path d="M79.509 56.2457C86.92 56.2457 92.927 50.235 92.927 42.8203C92.927 35.4056 86.92 29.3949 79.509 29.3949C72.099 29.3949 66.0911 35.4056 66.0911 42.8203C66.0911 50.235 72.099 56.2457 79.509 56.2457Z" fill="#FFB6B6"/>
<path d="M97.809 145.624L85.309 230.729H69.627L71.712 182.149L72.81 156.606L69.627 144.447C69.627 144.447 68.176 141.744 66.9531 138.468C65.5751 134.771 64.4867 130.339 66.1025 128.237C66.697 127.463 68.243 126.889 70.343 126.462C71.627 126.2 73.121 125.995 74.733 125.837C84.007 124.919 97.199 125.492 97.199 125.492L97.534 136.565L97.72 142.748L97.809 145.624Z" fill="#2F2E41"/>
<path d="M20.9742 233.379L28.9654 237.673L49.3262 208.878L37.5321 202.539L20.9742 233.379Z" fill="#FFB6B6"/>
<path d="M48.4489 247.914C48.4726 248.467 47.8773 249.891 47.6155 250.379C46.8107 251.877 44.9441 252.439 43.4462 251.634L18.6998 238.331C17.678 237.782 17.2947 236.508 17.8437 235.486L18.3972 234.455C18.3972 234.455 18.8367 230.698 23.4076 228.235C23.4076 228.235 24.9345 232.909 32.13 230.742L34.8538 228.982L40.9193 241.664L46.0912 245.323C47.2228 246.124 48.3895 246.529 48.4488 247.914H48.4489Z" fill="#2F2E41"/>
<path d="M97.72 142.748L91.086 156.056L71.712 182.149L39.817 225.107L26.0035 217.683L63.8679 153.894L66.819 141.674C66.819 141.674 66.819 140.353 66.9531 138.468C67.2153 134.738 68.002 128.793 70.343 126.462C70.66 126.145 71.005 125.895 71.38 125.727C72.084 125.41 73.255 125.486 74.733 125.837C80.91 127.313 92.437 133.655 97.534 136.565L97.72 142.748Z" fill="#2F2E41"/>
<path d="M193.751 248.006L185.951 248.005L182.241 217.905H193.752L193.751 248.006Z" fill="#A0616A"/>
<path d="M167.029 247.828C166.786 248.238 166.658 249.559 166.658 250.034C166.658 251.497 167.843 252.683 169.305 252.683H193.459C194.456 252.683 195.265 251.874 195.265 250.876V249.87C195.265 249.87 196.46 246.846 194 243.119C194 243.119 190.942 246.037 186.373 241.466L185.026 239.024L175.274 246.16L169.868 246.826C168.686 246.972 167.637 246.803 167.029 247.828Z" fill="#2F2E41"/>
<path d="M224.476 238.809L217.266 241.785L202.361 215.377L213.002 210.984L224.476 238.809Z" fill="#A0616A"/>
<path d="M199.707 248.844C199.638 249.315 200.023 250.585 200.205 251.025C200.762 252.377 202.31 253.021 203.662 252.463L225.989 243.244C226.911 242.864 227.35 241.807 226.97 240.885L226.586 239.955C226.586 239.955 226.538 236.703 222.843 234.197C222.843 234.197 221.129 238.062 215.163 235.58L212.987 233.837L206.692 244.155L201.949 246.834C200.912 247.42 199.878 247.664 199.707 248.844Z" fill="#2F2E41"/>
<path d="M197.329 144.752L194.146 156.911L194.994 176.64L196.399 209.41L196.439 210.334L196.598 214.019L197.329 231.034H181.647L174.666 183.5L169.147 145.929L169.727 126.798L169.757 125.797C169.757 125.797 197.805 124.577 200.854 128.542C203.902 132.508 197.329 144.752 197.329 144.752Z" fill="#2F2E41"/>
<path d="M219.149 218.802L216.49 220.178L206.658 225.269L205.219 226.013L196.598 214.019L174.666 183.5L169.147 145.929L169.727 126.798C172.208 126.008 174.193 125.684 175.199 126.154C179.729 128.274 179.513 142.171 179.513 142.171L182.272 154.434L194.994 176.64L219.149 218.802Z" fill="#2F2E41"/>
<path d="M65.6454 55.1817L80.889 62.5026C80.889 62.5026 97.047 110.393 97.047 112.833C97.047 115.273 101.62 116.799 98.876 119.544C96.132 122.289 103.983 124.614 99.752 126.807C95.522 129 69.133 140.995 66.199 139.913C58.106 136.93 66.542 125.968 66.542 125.968C66.542 125.968 60.4626 121.069 61.3772 118.629C62.2918 116.189 55.8896 69.5183 55.8896 69.5183L65.6454 55.1817Z" fill="#FAFBFC"/>
<path d="M78.69 46.0359L80.416 49.4895C80.416 49.4895 82.141 43.2731 84.903 41.8916C87.664 40.5102 88.009 38.4381 88.009 38.4381C88.009 38.4381 91.461 42.9277 93.877 41.8916C96.293 40.8556 97.329 40.1649 94.567 36.0206C91.806 31.8763 92.496 33.9484 92.496 33.9484C92.496 33.9484 90.08 30.4948 90.425 31.5309C90.771 32.567 88.354 28.768 88.354 29.8041C88.354 30.8402 86.629 27.732 86.629 28.768C86.629 29.8041 79.38 26.3505 80.416 27.732C81.451 29.1134 74.203 24.9691 70.751 30.4948C67.2992 36.0206 62.513 34.9987 64.2158 38.4452C65.9185 41.8916 65.2282 51.2163 65.2282 51.2163H69.988C69.988 51.2163 74.893 41.8916 78.69 46.0359Z" fill="#2F2E41"/>
<path d="M180.275 75.314L180.554 75.235L194.299 71.3485L205.274 86.2952L197.957 117.409L200.701 129.915C200.701 129.915 178.446 124.119 169.605 129C169.605 129 168.995 126.219 169.605 124.864C170.214 123.509 171.129 117.872 170.214 115.353C169.3 112.833 172.044 100.937 172.044 100.937C172.044 100.937 171.129 93.006 175.092 89.0405C179.055 85.0751 180.275 75.314 180.275 75.314Z" fill="#00B2C9"/>
<path d="M167.792 131.496L119.495 107.48C119.254 107.361 119.044 107.196 118.871 106.991L111.335 98.105C110.835 97.516 110.727 96.684 111.059 95.986L125.19 66.3233C125.437 65.8034 125.898 65.4196 126.454 65.2701C127.011 65.1208 127.601 65.222 128.076 65.5477L162.137 88.9247C162.836 89.4044 163.149 90.2745 162.914 91.0898L155.999 115.168C155.81 115.827 156.051 116.546 156.599 116.957L170.279 127.223C171.016 127.776 171.27 128.784 170.884 129.62L170.452 130.559C170.227 131.045 169.825 131.411 169.32 131.59C169.106 131.665 168.885 131.703 168.665 131.703C168.366 131.702 168.068 131.633 167.792 131.496Z" fill="#00B2C9"/>
<path d="M167.406 125.651L153.962 114.459C153.846 114.361 153.755 114.242 153.691 114.111C153.569 113.864 153.544 113.568 153.636 113.297L161.297 90.8677C161.495 90.2881 161.282 89.6414 160.776 89.2937L128.856 67.4289C128.53 67.2031 128.121 67.133 127.737 67.2336C127.35 67.3343 127.03 67.5966 126.853 67.9535L113.396 95.294C113.192 95.706 113.207 96.178 113.433 96.572C113.46 96.627 113.494 96.679 113.534 96.727L120.302 105.665C120.433 105.836 120.603 105.976 120.796 106.071L165.934 127.938C166.123 128.03 166.327 128.076 166.532 128.076C166.885 128.076 167.239 127.938 167.501 127.673C167.531 127.64 167.562 127.609 167.592 127.572C167.806 127.313 167.916 126.981 167.9 126.642C167.882 126.258 167.702 125.898 167.406 125.651Z" fill="#F2F2F2"/>
<path d="M144.935 118.173C145.089 118.087 145.2 117.937 145.209 117.778L146.956 85.2432C146.969 85.0179 146.772 84.8602 146.517 84.8907C146.262 84.9211 146.047 85.1283 146.035 85.3534L144.287 117.888C144.275 118.113 144.471 118.271 144.726 118.241C144.8 118.232 144.871 118.208 144.935 118.173Z" fill="#00B2C9"/>
<path d="M115.439 88.7493C115.568 88.9107 115.762 89.0101 115.945 88.991L153.305 85.0803C153.563 85.0532 153.701 84.7994 153.613 84.5135C153.525 84.2262 153.243 84.0173 152.985 84.0445L115.625 87.9553C115.367 87.9823 115.229 88.2362 115.317 88.5221C115.343 88.6059 115.385 88.6829 115.439 88.7493Z" fill="#00B2C9"/>
<path d="M146.089 103.531C146.14 103.595 146.216 103.635 146.287 103.628L160.814 102.273C160.914 102.263 160.967 102.165 160.931 102.052C160.895 101.939 160.785 101.856 160.684 101.866L146.158 103.221C146.057 103.23 146.005 103.329 146.04 103.441C146.051 103.474 146.068 103.505 146.089 103.531Z" fill="#00B2C9"/>
<path d="M127.59 109.806C127.701 109.806 127.808 109.741 127.861 109.629L138.739 86.6272C138.814 86.468 138.754 86.2741 138.605 86.1941C138.455 86.1136 138.273 86.178 138.198 86.3371L127.32 109.338C127.245 109.498 127.305 109.692 127.454 109.772C127.498 109.795 127.545 109.806 127.59 109.806Z" fill="#00B2C9"/>
<path d="M112.093 97.381C115.876 96.262 119.519 97.309 120.23 99.718C120.941 102.127 118.451 104.986 114.666 106.104C113.16 106.571 111.565 106.671 110.013 106.395L93.924 110.931L91.958 103.331L108.027 99.666C109.18 98.591 110.575 97.807 112.093 97.381Z" fill="#FFB6B6"/>
<path d="M83.636 70.448L81.114 100.632L103.702 100.875L108.086 107.629C108.086 107.629 80.708 123.489 72.488 115.385C64.267 107.281 60.6093 73.1769 67.9182 67.3393C75.227 61.5017 83.636 70.448 83.636 70.448Z" fill="#FAFBFC"/>
<path d="M157.629 124.947C153.696 124.65 150.66 122.379 150.849 119.874C151.038 117.37 154.38 115.58 158.315 115.877C159.888 115.974 161.416 116.447 162.769 117.256L179.42 118.722L178.565 126.526L162.241 124.252C160.782 124.848 159.2 125.087 157.629 124.947Z" fill="#A0616A"/>
<path d="M206.325 88.2893L203.605 122.292C203.605 122.292 202.748 129.62 191.342 129.161C179.936 128.701 164.786 125.099 164.786 125.099L165.333 117.164L178.082 117.857C178.082 117.857 183.922 116.102 185.149 117.008C186.375 117.913 185.897 119.076 186.983 117.604C188.069 116.131 187.438 115.286 188.522 116.465C189.605 117.644 189.927 119.777 190.393 117.089C190.86 114.401 192.022 114.879 192.022 114.879L191.34 90.1153C191.34 90.1153 194.112 78.1358 200.542 81.7458C206.973 85.3557 206.325 88.2893 206.325 88.2893Z" fill="#00B2C9"/>
<path d="M140.263 76.952C140.296 81.7579 133.627 89.2454 131.706 89.2586C129.786 89.2718 123.014 81.877 122.98 77.0711C122.947 72.2652 126.789 68.3426 131.562 68.3097C136.334 68.2768 140.23 72.1461 140.263 76.952Z" fill="#F65C4E"/>
<path d="M131.66 82.4502C134.697 82.4293 137.142 79.9503 137.121 76.9132C137.1 73.8762 134.621 71.4311 131.584 71.452C128.547 71.4729 126.102 73.9519 126.123 76.989C126.144 80.026 128.623 82.4711 131.66 82.4502Z" fill="white"/>
<defs>
<linearGradient id="paint0_linear_201_48" x1="211.386" y1="253.689" x2="6.19442" y2="65.0775" gradientUnits="userSpaceOnUse">
<stop stop-color="#D1EAED"/>
<stop offset="1" stop-color="#C8E4E8"/>
</linearGradient>
</defs>
</svg>
