<svg width="312" height="163" viewBox="0 0 232 88" fill="none" xmlns="http://www.w3.org/2000/svg">
<path d="M40 43C40 41.8954 40.8954 41 42 41H270C271.105 41 272 41.8954 272 43V121C272 122.105 271.105 123 270 123H42C40.8954 123 40 122.105 40 121V43Z" fill="white"/>
<path d="M42 42H270V40H42V42ZM271 43V121H273V43H271ZM270 122H42V124H270V122ZM41 121V43H39V121H41ZM42 122C41.4477 122 41 121.552 41 121H39C39 122.657 40.3431 124 42 124V122ZM271 121C271 121.552 270.552 122 270 122V124C271.657 124 273 122.657 273 121H271ZM270 42C270.552 42 271 42.4477 271 43H273C273 41.3431 271.657 40 270 40V42ZM42 40C40.3431 40 39 41.3431 39 43H41C41 42.4477 41.4477 42 42 42V40Z" fill="white" fill-opacity="0.1"/>
<path d="M56.0336 41C53.0129 127.528 254.792 43.0123 256 123" stroke="#D4D4D4"/>
</svg>
